<?xml version="1.0" encoding="UTF-8"?><svg xmlns="http://www.w3.org/2000/svg" viewBox="0 0 76.82 46.98"><defs><style>.d,.e{fill:#fff;}.e{stroke:#000;stroke-miterlimit:10;}</style></defs><g id="a"/><g id="b"><g id="c"><g><path class="d" d="M2.25,46.41c-.64,0-1.22-.31-1.54-.82-.13-.22-.2-.48-.2-.74V2.07c0-.11,.01-.23,.04-.33,.18-.72,.9-1.24,1.7-1.24H74.57c.81,0,1.52,.52,1.7,1.23,.03,.11,.04,.23,.04,.34V44.84c0,.27-.07,.52-.21,.76-.32,.5-.89,.81-1.54,.81H2.25Z"/><path d="M74.57,1c.58,0,1.09,.36,1.22,.87,.02,.06,.02,.13,.02,.2V44.84c0,.18-.05,.34-.13,.48-.23,.37-.65,.59-1.12,.59H2.25c-.47,0-.89-.22-1.11-.57-.09-.16-.14-.32-.14-.5V2.07c0-.07,0-.14,.03-.22,.12-.49,.63-.85,1.22-.85H74.57m0-1H2.25C1.18,0,.29,.69,.06,1.61c-.04,.15-.06,.3-.06,.46V44.84c0,.37,.1,.71,.28,1.01,.4,.63,1.13,1.06,1.97,1.06H74.57c.84,0,1.57-.42,1.97-1.06,.18-.3,.28-.64,.28-1.01V2.07c0-.16-.02-.31-.06-.46-.23-.92-1.12-1.61-2.19-1.61h0Z"/></g><path class="e" d="M45.81,23.81l30.03,21.63c-.39,.62-1.11,1.04-1.93,1.04H2.91c-.82,0-1.54-.41-1.93-1.04L31.01,23.81"/><g><path class="d" d="M38.4,28.18c-.4,0-.78-.12-1.09-.35L.66,1.42c.28-.55,.9-.92,1.59-.92H74.57c.69,0,1.31,.37,1.59,.92L39.5,27.84c-.31,.22-.7,.35-1.1,.35Z"/><path d="M74.57,1c.34,0,.65,.12,.88,.32l-30.09,21.68-6.15,4.43c-.23,.16-.51,.25-.81,.25s-.57-.09-.8-.25l-6.15-4.43L1.37,1.32c.23-.2,.54-.32,.88-.32H74.57m0-1H2.25C1.18,0,.29,.69,.06,1.61L30.87,23.81l6.15,4.43c.4,.29,.89,.44,1.38,.44s.98-.15,1.39-.44l6.15-4.43L76.76,1.61c-.23-.92-1.12-1.61-2.19-1.61h0Z"/></g></g></g></svg>