<?xml version="1.0" encoding="UTF-8"?><svg xmlns="http://www.w3.org/2000/svg" viewBox="0 0 76.76 46.91"><defs><style>.d,.e{fill:#fff;}.e{stroke:#000;stroke-linecap:round;stroke-miterlimit:10;}</style></defs><g id="a"/><g id="b"><g id="c"><g><path class="d" d="M2.24,46.41c-.64,0-1.22-.31-1.54-.82-.13-.22-.2-.48-.2-.74V2.07c0-.12,.01-.23,.04-.33,.18-.72,.9-1.24,1.7-1.24H74.51c.81,0,1.52,.52,1.7,1.23,.03,.11,.04,.23,.04,.34V44.84c0,.27-.07,.52-.21,.76-.32,.5-.89,.81-1.54,.81H2.24Z"/><path d="M74.51,1c.58,0,1.09,.36,1.22,.87,.02,.06,.02,.13,.02,.2V44.84c0,.18-.05,.34-.13,.48-.23,.37-.65,.59-1.12,.59H2.24c-.47,0-.89-.22-1.1-.57-.09-.16-.14-.32-.14-.5V2.07c0-.07,0-.14,.03-.22,.12-.49,.63-.85,1.21-.85H74.51m0-1H2.24C1.18,0,.29,.69,.06,1.61c-.04,.15-.06,.3-.06,.46V44.84c0,.37,.1,.71,.28,1.01,.4,.63,1.13,1.06,1.97,1.06H74.51c.84,0,1.57-.42,1.97-1.06,.18-.3,.28-.64,.28-1.01V2.07c0-.16-.02-.31-.06-.46-.23-.92-1.12-1.61-2.18-1.61h0Z"/></g><g><path class="d" d="M62.79,17.71c-.19,0-.38-.03-.57-.1-.61-.22-1.01-.77-1.01-1.4V5.51c0-.82,.71-1.49,1.58-1.49h7.78c.87,0,1.58,.67,1.58,1.49v10.7c0,.61-.41,1.17-1.01,1.39-.19,.08-.38,.11-.57,.11h-7.78Z"/><path d="M70.57,4.52c.6,0,1.08,.44,1.08,.99v10.7c0,.4-.27,.77-.71,.93-.12,.05-.24,.07-.37,.07h-7.78c-.13,0-.27-.02-.39-.07-.42-.15-.69-.52-.69-.93V5.51c0-.55,.49-.99,1.08-.99h7.78m0-1h-7.78c-1.16,0-2.08,.89-2.08,1.99v10.7c0,.85,.55,1.58,1.34,1.87,.23,.08,.48,.13,.74,.13h7.78c.26,0,.51-.05,.74-.14,.78-.28,1.34-1.01,1.34-1.86V5.51c0-1.1-.94-1.99-2.08-1.99h0Z"/></g><g><ellipse class="d" cx="66.68" cy="9.45" rx="2.27" ry="2.17"/><path d="M66.68,7.65c1.05,0,1.9,.8,1.9,1.79s-.85,1.79-1.9,1.79-1.9-.8-1.9-1.79,.85-1.79,1.9-1.79m0-.75c-1.46,0-2.65,1.14-2.65,2.54s1.19,2.54,2.65,2.54,2.65-1.14,2.65-2.54-1.19-2.54-2.65-2.54h0Z"/></g><path d="M66.68,13.19c2.21,0,4.02,1.72,4.02,3.83,0,.15,0,.3-.03,.44-.03,0-.07,0-.1,0h-7.78s-.07,0-.1,0c-.02-.14-.03-.28-.03-.44,0-2.11,1.8-3.83,4.02-3.83m0-.75c-2.63,0-4.77,2.05-4.77,4.58,0,.37,.04,.72,.14,1.06,.23,.08,.48,.13,.74,.13h7.78c.26,0,.51-.05,.74-.14,.09-.34,.14-.69,.14-1.05,0-2.53-2.13-4.58-4.77-4.58h0Z"/><line class="e" x1="4.1" y1="3.52" x2="20.12" y2="3.52"/><line class="e" x1="4.1" y1="5.95" x2="27.32" y2="5.95"/></g></g></svg>