<?xml version="1.0" encoding="UTF-8"?><svg xmlns="http://www.w3.org/2000/svg" viewBox="0 0 23.52 19.58"><defs><style>.d{fill:#fff;}</style></defs><g id="a"/><g id="b"><g id="c"><g><path class="d" d="M9.16,15.16c-.15,1.09-1.76,2.16-3.08,1.96-2.93-.44-5.75-7.33-3.67-12.52C3.51,1.85,5.89-.2,6.62,.19c1.19,.64-3.1,7.39-.2,11.54,1.14,1.62,2.91,2.2,2.74,3.42Z"/><path class="d" d="M11.1,15.43c-.42,2.59-2.66,4.17-5.15,4.15-2.1-.06-3.97-1.99-4.69-3.61C-1.38,10.73,.23,3.72,5.12,.49c.43-.26,1.16-.76,1.68-.32,.23,.31,.12,.7,.06,1.03-.41,1.67-1.01,3.29-1.08,5.01-.39,6.67,5.34,4.68,5.31,9.21h0Zm-3.87-.55c-.04,.2,.28,.64,.17,.32-4.67-4.92-1.83-8.59-.69-14.03,.06-.38,.06-.95-.29-.88-1.13,.32-1.9,1.58-2.46,2.56-1.97,3.95-.44,9.03,2.48,11.71,.04,0,.07,.04,.08,.07-.02-.02-.04,.01-.07,.03-.11,.18,.53,.09,.62,.04,.14-.04,.15-.06,.17,.18h0Z"/></g><g><path class="d" d="M21.58,15.16c-.15,1.09-1.76,2.16-3.08,1.96-2.93-.44-5.75-7.33-3.67-12.52C15.93,1.85,18.31-.2,19.04,.19c1.19,.64-3.1,7.39-.2,11.54,1.14,1.62,2.91,2.2,2.74,3.42Z"/><path class="d" d="M23.52,15.43c-.42,2.59-2.66,4.17-5.15,4.15-2.1-.06-3.97-1.99-4.69-3.61-2.63-5.24-1.02-12.26,3.87-15.48,.43-.26,1.16-.76,1.68-.32,.23,.31,.12,.7,.06,1.03-.41,1.67-1.01,3.29-1.08,5.01-.39,6.67,5.34,4.68,5.31,9.21h0Zm-3.87-.55c-.04,.21,.28,.64,.17,.32-4.67-4.92-1.83-8.59-.69-14.03,.06-.38,.06-.95-.29-.88-1.13,.32-1.9,1.58-2.46,2.56-1.97,3.95-.44,9.03,2.48,11.71,.04,0,.07,.04,.08,.07-.02-.02-.04,.01-.07,.03-.11,.18,.53,.09,.62,.04,.14-.04,.15-.06,.17,.18h0Z"/></g></g></g></svg>